#!OML:ASF E:\Style4\Style4.ASF
:FULLY-SPECIFIED
:DEGREES
3714
root -0.24958 17.9237 -2.42909 4.28928 -3.0205 2.30277
lowerback 8.70664 2.86202 -2.14182
upperback 3.83852 3.61402 -0.38079
thorax -1.00487 1.78377 0.4654
lowerneck 0.159249 -5.14587 -6.23881
upperneck 0.294371 -6.89844 6.0583
head 0.527247 -3.45192 2.96326
rclavicle -3.67752e-015 -3.97569e-016
rhumerus -355.024 69.106 -412.618
rradius 112.124
rwrist -49.9263
rhand -30.1925 18.3618
rfingers 7.12502
rthumb -3.50337 -11.5892
lclavicle -3.67752e-015 -3.97569e-016
lhumerus -50.0845 -44.5653 107.148
lradius 106.563
lwrist 39.8234
lhand -8.59636 24.0679
lfingers 7.12502
lthumb 17.335 53.3148
rfemur -19.0679 2.57055 16.0336
rtibia 30.1542
rfoot -14.9952 -10.9262
rtoes -9.15975
lfemur -14.784 1.16753 -21.5367
ltibia 27.3687
lfoot -17.739 12.2672
ltoes -11.0195
3715
root -0.239112 17.9428 -2.41596 3.98803 -3.01025 2.23686
lowerback 8.8892 2.8366 -1.91354
upperback 3.72532 3.59121 -0.435266
thorax -1.20467 1.77668 0.271549
lowerneck 0.185887 -5.13952 -6.21241
upperneck 0.0827721 -6.88546 6.14439
head 0.456962 -3.44576 2.99164
rclavicle -1.54058e-015 -1.98785e-016
rhumerus -353.285 67.9166 -410.949
rradius 113.177
rwrist -49.207
rhand -30.5155 17.929
rfingers 7.12502
rthumb -3.8153 -12.0166
lclavicle -1.54058e-015 -1.98785e-016
lhumerus -50.371 -44.3091 107.161
lradius 106.61
lwrist 39.4613
lhand -8.252 24.4068
lfingers 7.12502
lthumb 17.6664 53.6242
rfemur -18.2785 2.67741 16.0773
rtibia 29.4363
rfoot -14.7763 -10.9894
rtoes -9.1793
lfemur -14.0103 0.91787 -21.4962
ltibia 26.6905
lfoot -17.6911 12.4495
ltoes -10.856
3716
root -0.233322 17.9609 -2.39694 3.79429 -3.0801 1.71826
lowerback 8.96751 2.83352 -1.38356
upperback 3.511 3.62941 -0.321269
thorax -1.44563 1.80085 0.078812
lowerneck 0.327572 -5.13311 -6.09926
upperneck -0.0800711 -6.87835 6.0932
head 0.373566 -3.44418 2.96057
rclavicle -9.39258e-015 8.74653e-015
rhumerus -352.186 66.6873 -409.84
rradius 114.267
rwrist -48.7352
rhand -30.3751 17.9264
rfingers 7.12502
rthumb -3.67972 -12.0216
lclavicle -9.39258e-015 8.74653e-015
lhumerus -50.8767 -43.9455 107.289
lradius 106.727
lwrist 39.1661
lhand -8.26153 24.532
lfingers 7.12502
lthumb 17.6572 53.7503
rfemur -17.5514 2.98223 16.6467
rtibia 28.663
rfoot -14.5009 -11.1634
rtoes -9.47237
lfemur -13.353 0.88133 -20.9352
ltibia 26.0937
lfoot -17.6676 12.502
ltoes -10.2336
3717
root -0.232117 17.9798 -2.37468 4.0302 -3.23207 1.38954
lowerback 8.34627 2.82102 -0.650088
upperback 3.35001 3.67671 -0.603422
thorax -1.20691 1.83144 -0.595517
lowerneck 0.412389 -5.15136 -5.70691
upperneck -0.431684 -6.89432 6.26193
head 0.240167 -3.45429 2.95329
rclavicle -9.54166e-015 -5.76476e-015
rhumerus -351.305 64.8379 -409.562
rradius 115.139
rwrist -48.3482
rhand -29.7642 18.4312
rfingers 7.12502
rthumb -3.08971 -11.5262
lclavicle -9.54166e-015 -5.76476e-015
lhumerus -51.1131 -44.0563 106.695
lradius 106.85
lwrist 38.9488
lhand -8.68075 24.225
lfingers 7.12502
lthumb 17.2537 53.4791
rfemur -17.2879 3.30606 16.9971
rtibia 27.864
rfoot -14.1991 -11.298
rtoes -9.39912
lfemur -13.1903 0.999232 -20.5688
ltibia 25.5589
lfoot -17.5596 12.5429
ltoes -9.85951
3718
root -0.229118 18.001 -2.35441 4.24482 -3.28079 1.38777
lowerback 7.6348 2.88365 -1.50775
upperback 3.29795 3.71919 0.0225679
thorax -0.96387 1.843 0.555893
lowerneck 0.363959 -5.16952 -6.20253
upperneck -0.798608 -6.90677 5.94684
head 0.138993 -3.45819 2.94315
rclavicle -5.68524e-014 6.75868e-015
rhumerus -349.273 63.2966 -406.969
rradius 116.151
rwrist -48.0712
rhand -29.3158 18.8559
rfingers 7.12502
rthumb -2.65668 -11.1073
lclavicle -5.68524e-014 6.75868e-015
lhumerus -50.9323 -43.4119 107.295
lradius 106.725
lwrist 38.4361
lhand -9.05639 23.8529
lfingers 7.12502
lthumb 16.8922 53.1383
rfemur -17.0307 3.51944 16.976
rtibia 27.1026
rfoot -13.9267 -11.4531
rtoes -9.45914
lfemur -13.0399 0.942861 -20.5755
ltibia 25.0276
lfoot -17.4321 12.6596
ltoes -9.73963
3719
root -0.223149 18.021 -2.33383 4.30052 -3.35472 1.38241
lowerback 7.3248 2.8905 -1.47465
upperback 3.10681 3.73542 -0.00428756
thorax -0.986384 1.85286 0.518893
lowerneck 0.457259 -5.205 -6.14847
upperneck -1.02022 -6.95213 5.9343
head 0.0529469 -3.48201 2.93541
rclavicle 3.10601e-014 -3.97569e-015
rhumerus -348.614 61.5498 -406.59
rradius 117.096
rwrist -47.4602
rhand -29.0414 18.7536
rfingers 7.12502
rthumb -2.39173 -11.2127
lclavicle 3.10601e-014 -3.97569e-015
lhumerus -51.189 -43.2561 107.22
lradius 106.751
lwrist 38.08
lhand -9.19473 23.629
lfingers 7.12502
lthumb 16.759 52.9256
rfemur -16.6602 3.71115 16.9489
rtibia 26.4254
rfoot -13.6753 -11.552
rtoes -9.49736
lfemur -12.6643 0.816089 -20.6025
ltibia 24.4045
lfoot -17.2722 12.9385
ltoes -10.4717
3720
root -0.217451 18.0379 -2.31443 4.37803 -3.43923 1.34689
lowerback 7.60339 2.84811 -1.27912
upperback 2.52002 3.68075 -0.184922
thorax -1.72028 1.83229 0.195484
lowerneck 0.492886 -5.16317 -5.93529
upperneck -0.738088 -6.90502 5.90773
head 0.124152 -3.45952 2.88411
rclavicle 2.86747e-014 -1.11319e-014
rhumerus -348.851 60.0949 -407.334
rradius 118.042
rwrist -46.7407
rhand -28.5324 18.4496
rfingers 7.12502
rthumb -1.90009 -11.5217
lclavicle 2.86747e-014 -1.11319e-014
lhumerus -52.0718 -42.8735 107.224
lradius 106.884
lwrist 38.0974
lhand -8.75209 23.4872
lfingers 7.12502
lthumb 17.1851 52.7473
rfemur -16.3433 3.9567 16.9525
rtibia 25.7949
rfoot -13.4162 -11.6935
rtoes -9.52641
lfemur -12.2814 0.753551 -20.5899
ltibia 23.6836
lfoot -16.9932 13.2286
ltoes -11.4349
3721
root -0.214043 18.0555 -2.29465 4.40813 -3.45784 1.32648
lowerback 7.34243 2.83789 -1.18428
upperback 2.33477 3.67629 -0.259864
thorax -1.75598 1.83136 0.0741628
lowerneck 0.430054 -5.1905 -5.85224
upperneck -0.749465 -6.9376 5.92322
head 0.13102 -3.47517 2.87178
rclavicle -1.83876e-015 4.57205e-015
rhumerus -348.428 58.1256 -407.393
rradius 118.929
rwrist -46.132
rhand -28.1169 18.3852
rfingers 7.12502
rthumb -1.49885 -11.5892
lclavicle -1.83876e-015 4.57205e-015
lhumerus -52.1638 -42.7177 106.92
lradius 107.063
lwrist 38.2223
lhand -8.12075 23.7055
lfingers 7.12502
lthumb 17.7926 52.9115
rfemur -15.9588 4.25438 16.9488
rtibia 25.1713
rfoot -13.2096 -11.9395
rtoes -9.31085
lfemur -11.8383 0.569958 -20.5799
ltibia 22.9425
lfoot -16.719 13.4206
ltoes -11.1542
3722
root -0.21084 18.0723 -2.27243 4.36423 -3.44802 1.36222
lowerback 7.0401 2.84038 -1.13661
upperback 2.22771 3.68612 -0.34086
thorax -1.69061 1.83698 -0.0234915
lowerneck 0.364974 -5.2352 -5.82002
upperneck -0.746519 -6.99417 6.03081
head 0.149944 -3.50295 2.89889
rclavicle 2.48481e-014 -5.96354e-015
rhumerus -348.175 55.9932 -407.619
rradius 119.795
rwrist -45.5705
rhand -27.7783 18.3105
rfingers 7.12502
rthumb -1.17179 -11.666
lclavicle 2.48481e-014 -5.96354e-015
lhumerus -52.2484 -42.678 106.701
lradius 107.213
lwrist 38.248
lhand -8.05632 23.8354
lfingers 7.12502
lthumb 17.8546 53.0358
rfemur -15.5008 4.45342 16.8911
rtibia 24.5868
rfoot -13.0629 -12.118
rtoes -8.97977
lfemur -11.2909 0.332614 -20.6349
ltibia 22.1928
lfoot -16.5291 13.5709
ltoes -10.5662
3723
root -0.207708 18.0878 -2.25156 4.32991 -3.45015 1.43163
lowerback 6.659 2.85951 -1.11459
upperback 2.17564 3.7178 -0.42993
thorax -1.52591 1.85319 -0.110608
lowerneck 0.261416 -5.29069 -5.79331
upperneck -0.742645 -7.06353 6.14126
head 0.177055 -3.53652 2.92648
rclavicle -5.47155e-014 7.35503e-015
rhumerus -347.902 53.6988 -407.873
rradius 120.629
rwrist -45.335
rhand -27.2777 18.2989
rfingers 7.12502
rthumb -0.688311 -11.6798
lclavicle -5.47155e-014 7.35503e-015
lhumerus -52.2647 -42.7893 106.515
lradius 107.287
lwrist 38.4146
lhand -8.24434 23.464
lfingers 7.12502
lthumb 17.6737 52.6808
rfemur -15.0672 4.65596 16.7987
rtibia 24.007
rfoot -12.866 -12.3044
rtoes -8.97204
lfemur -10.7627 0.128808 -20.7246
ltibia 21.4513
lfoot -16.352 13.7515
ltoes -10.5284
3724
root -0.203634 18.101 -2.23251 4.35304 -3.39207 1.47628
lowerback 6.3175 2.84384 -1.10904
upperback 2.06473 3.7018 -0.481828
thorax -1.44666 1.84584 -0.15066
lowerneck 0.164849 -5.32941 -5.76764
upperneck -0.725759 -7.11128 6.16444
head 0.202191 -3.55908 2.92529
rclavicle 7.08667e-014 -1.63003e-014
rhumerus -347.545 51.4319 -408.104
rradius 121.426
rwrist -45.5632
rhand -26.8377 18.3944
rfingers 7.12502
rthumb -0.263376 -11.5852
lclavicle 7.08667e-014 -1.63003e-014
lhumerus -52.2177 -42.8227 106.325
lradius 107.34
lwrist 38.5344
lhand -8.27596 23.2609
lfingers 7.12502
lthumb 17.6433 52.4804
rfemur -14.6946 4.80958 16.7302
rtibia 23.4351
rfoot -12.6597 -12.4991
rtoes -9.37662
lfemur -10.3303 -0.131354 -20.7857
ltibia 20.7299
lfoot -16.1994 13.9533
ltoes -10.1628
3725
root -0.198745 18.1134 -2.21057 4.32162 -3.31188 1.44334
lowerback 6.0975 2.82951 -1.02292
upperback 1.90929 3.69039 -0.505426
thorax -1.47737 1.84091 -0.215022
lowerneck 0.153625 -5.36522 -5.7024
upperneck -0.684787 -7.15976 6.12112
head 0.215874 -3.58309 2.89693
rclavicle 2.76808e-014 6.36111e-015
rhumerus -347.465 49.3246 -408.583
rradius 122.214
rwrist -45.8765
rhand -26.6869 18.3267
rfingers 7.12502
rthumb -0.117685 -11.653
lclavicle 2.76808e-014 6.36111e-015
lhumerus -52.2898 -42.8686 106.248
lradius 107.422
lwrist 38.4536
lhand -8.24544 23.2115
lfingers 7.12502
lthumb 17.6727 52.4283
rfemur -14.2477 4.93966 16.7566
rtibia 22.8828
rfoot -12.4975 -12.714
rtoes -9.68162
lfemur -9.83506 -0.385215 -20.77
ltibia 20.0389
lfoot -16.113 14.1944
ltoes -9.96287
3726
root -0.194882 18.1257 -2.18811 4.24913 -3.27197 1.36715
lowerback 5.89829 2.81839 -0.920889
upperback 1.77125 3.68439 -0.487822
thorax -1.50338 1.83842 -0.247044
lowerneck 0.173142 -5.40115 -5.68616
upperneck -0.625294 -7.21054 6.05044
head 0.230957 -3.60852 2.86904
rclavicle -3.99557e-014 9.74045e-015
rhumerus -347.479 47.2838 -409.19
rradius 122.969
rwrist -46.1073
rhand -26.6986 17.9388
rfingers 7.12502
rthumb -0.128984 -12.0409
lclavicle -3.99557e-014 9.74045e-015
lhumerus -52.3136 -42.8068 106.166
lradius 107.473
lwrist 38.2536
lhand -8.07717 23.218
lfingers 7.12502
lthumb 17.8346 52.4202
rfemur -13.7696 5.04721 16.8337
rtibia 22.3473
rfoot -12.3668 -12.8178
rtoes -9.68451
lfemur -9.29459 -0.521241 -20.7107
ltibia 19.3574
lfoot -15.8669 14.4225
ltoes -10.7283
